<?xml version="1.0" encoding="utf-8"?>
<!-- Generator: Adobe Illustrator 15.1.0, SVG Export Plug-In . SVG Version: 6.00 Build 0)  -->
<!DOCTYPE svg PUBLIC "-//W3C//DTD SVG 1.1//EN" "http://www.w3.org/Graphics/SVG/1.1/DTD/svg11.dtd">
<svg version="1.1" id="Laag_1" xmlns="http://www.w3.org/2000/svg" xmlns:xlink="http://www.w3.org/1999/xlink" x="0px" y="0px"
	 width="200px" height="200px" viewBox="0 0 200 200" enable-background="new 0 0 200 200" xml:space="preserve">
<rect fill="#0072C1" width="200" height="200"/>
<path fill="#FFFFFF" d="M158.868,40.873C153.816,35.884,149.225,34,142.207,34H60.564c-7.142,0-13.652,1.884-18.639,6.873
	C36.938,45.86,34,51.319,34,58.458V140.1c0,7.145,2.938,13.818,7.925,18.805C46.913,163.893,53.422,167,60.564,167H122v-24H60.564
	c-0.862,0-2.564-2.038-2.564-2.9V58.458C58,57.599,59.702,58,60.564,58h81.643c0.737,0,0.793-0.401,0.793,0.458V140.1
	c0,0.021,0,0.039,0,0.062v25.589c5-0.248,10.93-2.735,15.713-7.457c5.045-4.986,6.287-11.049,6.287-18.193V58.458
	C165,51.319,163.916,45.86,158.868,40.873z"/>
</svg>
