<?xml version="1.0" encoding="UTF-8" standalone="no"?>
<svg xmlns:rdf="http://www.w3.org/1999/02/22-rdf-syntax-ns#" xmlns="http://www.w3.org/2000/svg" xml:space="preserve" height="1.02e3" viewBox="0 0 1024 1024" width="1.02e3" version="1.1" xmlns:cc="http://creativecommons.org/ns#" xmlns:dc="http://purl.org/dc/elements/1.1/"><g transform="matrix(1.25,0,0,-1.25,0,1024)"><g transform="matrix(4.75 0 0 4.75 772 774)"><path d="m0 0c-6.56 6.48-14.3 9.55-23.4 9.55h-106c-9.27 0-16.9-3.07-23.4-9.55-6.47-6.48-9.51-14.2-9.51-23.5v-106c0-9.27 3.03-17 9.51-23.5 6.48-6.47 14.1-9.55 23.4-9.55h82.1v31h-82.1c-1.12 0-0.921 0.894-0.921 2.01v106c0 1.12-0.199 2 0.921 2h106c0.958 0 2.1-0.888 2.1-2v-106-0.078-33.2c8 0.324 15.4 3.55 21.6 9.68 6.55 6.47 9.38 14.3 9.38 23.6v106c-0.38 8.8-3.55 16.5-10.1 23"/></g></g></svg>
