<svg xmlns="http://www.w3.org/2000/svg" height="1020" viewBox="0 0 1024 1024" width="1020" fill="#a0a5aa"><path d="M965 56.5C926.05 18.025 880.094-.203 826.062-.203H196.688C141.648-.203 96.344 18.025 57.75 56.5 19.334 94.975 1.284 140.813 1.284 196.031v629.375c0 55.04 17.991 100.938 56.466 139.532 38.475 38.415 83.719 56.703 138.938 56.703h487.468V837.578H196.688c-6.65 0-5.469-5.308-5.469-11.934V196.269c0-6.65-1.181-11.875 5.469-11.875h629.375c5.688 0 12.468 5.272 12.468 11.875v826.963c47.5-1.924 91.438-21.078 128.25-57.475 38.89-38.416 55.694-84.906 55.694-140.125V196.257c-2.256-52.25-21.078-97.969-59.969-136.563"/></svg>