<svg xmlns="http://www.w3.org/2000/svg" width="200" height="200" viewBox="0 0 200 200"><path fill="#0072C1" d="M0 0h200v200H0z"/><path fill="#FFF" d="M158.868 40.873C153.816 35.884 149.225 34 142.207 34H60.564c-7.142 0-13.652 1.884-18.639 6.873C36.938 45.86 34 51.319 34 58.458V140.1c0 7.145 2.938 13.818 7.925 18.805C46.913 163.893 53.422 167 60.564 167H122v-24H60.564c-.862 0-2.564-2.038-2.564-2.9V58.458c0-.859 1.702-.458 2.564-.458h81.643c.737 0 .793-.401.793.458V165.751c5-.248 10.93-2.735 15.713-7.457 5.045-4.986 6.287-11.049 6.287-18.193V58.458c0-7.139-1.084-12.598-6.132-17.585z"/></svg>